HIERARCHY
ROOT Pelvis
{
	OFFSET 0.000000 0.941512 0.000000
	CHANNELS 6 Xposition Yposition Zposition Zrotation Yrotation Xrotation 
	JOINT Pelvis_L_Hip
	{
		OFFSET 0.000000 0.000000 0.000000
		CHANNELS 3 Zrotation Yrotation Xrotation
		JOINT L_Hip
		{
			OFFSET 0.062321 -0.080322 -0.016990
			CHANNELS 3 Zrotation Yrotation Xrotation
			JOINT L_Knee
			{
				OFFSET 0.093051 -0.381305 -0.029784
				CHANNELS 3 Zrotation Yrotation Xrotation
				JOINT L_Ankle
				{
					OFFSET -0.010371 -0.431000 -0.033614
					CHANNELS 3 Zrotation Yrotation Xrotation
					End Site #name: L_Foot
					{
						OFFSET 0.069299 -0.038670 0.119418
					}
				}
			}
		}
	}
	JOINT Pelvis_R_Hip
	{
		OFFSET 0.000000 0.000000 0.000000
		CHANNELS 3 Zrotation Yrotation Xrotation
		JOINT R_Hip
		{
			OFFSET -0.055334 -0.094904 -0.002373
			CHANNELS 3 Zrotation Yrotation Xrotation
			JOINT R_Knee
			{
				OFFSET -0.064207 -0.384370 -0.019592
				CHANNELS 3 Zrotation Yrotation Xrotation
				JOINT R_Ankle
				{
					OFFSET 0.025418 -0.419734 -0.065953
					CHANNELS 3 Zrotation Yrotation Xrotation
					End Site #name: R_Foot
					{
						OFFSET -0.057233 -0.039888 0.132134
					}
				}
			}
		}
	}
	JOINT Pelvis_Spine1
	{
		OFFSET 0.000000 0.000000 0.000000
		CHANNELS 3 Zrotation Yrotation Xrotation
		JOINT Spine1
		{
			OFFSET -0.005562 0.124093 -0.043360
			CHANNELS 3 Zrotation Yrotation Xrotation
			JOINT Spine2
			{
				OFFSET 0.012244 0.139499 0.029894
				CHANNELS 3 Zrotation Yrotation Xrotation
				JOINT Spine3
				{
					OFFSET -0.002556 0.056561 0.009225
					CHANNELS 3 Zrotation Yrotation Xrotation
					JOINT Spine3_Neck
					{
						OFFSET 0.000000 0.000000 0.000000
						CHANNELS 3 Zrotation Yrotation Xrotation
						JOINT Neck
						{
							OFFSET -0.005205 0.217920 -0.024551
							CHANNELS 3 Zrotation Yrotation Xrotation
							End Site #name: Head
							{
								OFFSET 0.002365 0.091850 0.046637
							}
						}
					}
					JOINT Spine3_L_Collar
					{
						OFFSET 0.000000 0.000000 0.000000
						CHANNELS 3 Zrotation Yrotation Xrotation
						JOINT L_Collar
						{
							OFFSET 0.072225 0.116603 -0.009480
							CHANNELS 3 Zrotation Yrotation Xrotation
							JOINT L_Shoulder
							{
								OFFSET 0.115937 -0.058643 -0.021018
								CHANNELS 3 Zrotation Yrotation Xrotation
								JOINT L_Elbow
								{
									OFFSET 0.021994 -0.254722 -0.024492
									CHANNELS 3 Zrotation Yrotation Xrotation
									End Site #name: L_Wrist
									{
										OFFSET 0.048810 -0.240214 0.103329
									}
								}
							}
						}
					}
					JOINT Spine3_R_Collar
					{
						OFFSET 0.000000 0.000000 0.000000
						CHANNELS 3 Zrotation Yrotation Xrotation
						JOINT R_Collar
						{
							OFFSET -0.073372 0.120704 -0.024611
							CHANNELS 3 Zrotation Yrotation Xrotation
							JOINT R_Shoulder
							{
								OFFSET -0.108089 -0.054969 -0.020504
								CHANNELS 3 Zrotation Yrotation Xrotation
								JOINT R_Elbow
								{
									OFFSET -0.033684 -0.260739 0.009889
									CHANNELS 3 Zrotation Yrotation Xrotation
									End Site #name: R_Wrist
									{
										OFFSET -0.067980 -0.232763 0.118463
									}
								}
							}
						}
					}
				}
			}
		}
	}
}
MOTION
Frames: 8
Frame Time: 0.041667
0.000000 0.762087 0.000000 1.699134 -4.958188 21.212729 0.000000 0.000000 0.000000 4.845616 9.566017 40.598657 3.146398 4.264113 -57.982142 8.904594 51.117208 98.464039 0.000000 0.000000 0.000000 -3.819253 -5.291964 44.451573 6.143515 -0.376884 -75.470983 -51.245027 -44.240176 132.091192 0.000000 0.000000 0.000000 4.146678 4.265346 -40.025917 -8.947618 -0.555511 -17.708082 13.107163 -1.093263 45.678185 0.000000 0.000000 0.000000 -25.037409 1.371277 -57.017151 0.000000 0.000000 0.000000 29.009698 9.230048 12.879611 -18.517420 2.154660 -3.687636 23.181198 4.574023 163.600048 0.000000 0.000000 0.000000 -75.623759 -5.848114 28.775516 44.975568 -2.582110 3.700505 -56.190743 14.514490 132.025633 
0.000325 0.766593 -0.005554 2.044731 -5.151753 20.823972 0.000000 0.000000 0.000000 4.429615 9.770833 40.490632 3.671723 4.452587 -57.490071 11.573932 51.589508 98.392937 0.000000 0.000000 0.000000 -4.747632 -4.740686 44.168593 8.222828 0.775383 -76.043372 -54.004675 -43.608413 135.292195 0.000000 0.000000 0.000000 3.508367 4.056878 -39.005791 -8.970387 -0.706256 -19.177333 15.233588 -2.491597 46.616062 0.000000 0.000000 0.000000 -31.176804 2.324767 -53.990863 0.000000 0.000000 0.000000 29.878909 6.725459 11.035286 -22.799510 3.661470 -0.879531 22.788151 4.936018 160.321651 0.000000 0.000000 0.000000 -80.894564 -4.324443 28.926133 49.233340 -3.749879 5.324305 -44.961280 7.125125 139.926007 
0.001034 0.769830 -0.003614 2.138592 -5.608710 20.691107 0.000000 0.000000 0.000000 3.903161 10.202392 40.726938 3.646367 4.439164 -57.141178 12.138960 51.283607 94.333331 0.000000 0.000000 0.000000 -5.243299 -4.352147 43.869368 8.743439 1.171701 -76.845433 -60.468454 -43.151942 137.573497 0.000000 0.000000 0.000000 3.303945 4.101766 -39.291463 -9.041265 -0.603339 -18.338566 15.307900 -2.636974 46.735971 0.000000 0.000000 0.000000 -30.219385 1.569101 -56.888008 0.000000 0.000000 0.000000 30.965032 6.180171 10.791235 -24.174785 4.074645 -0.316616 19.030624 10.563012 159.281586 0.000000 0.000000 0.000000 -79.705919 -5.329285 30.305533 48.561658 -3.176924 4.238035 -45.893472 8.088122 139.895069 
0.001328 0.770574 -0.001980 1.743500 -5.613613 20.508060 0.000000 0.000000 0.000000 3.961468 10.253763 40.972300 4.001388 4.564649 -56.862472 9.529418 50.804896 94.723088 0.000000 0.000000 0.000000 -5.348325 -4.291961 43.884746 9.576082 1.671649 -77.169355 -64.908027 -42.891287 138.638735 0.000000 0.000000 0.000000 3.662458 4.315130 -40.438474 -8.743725 -0.548503 -17.793841 15.377604 -2.885311 47.424297 0.000000 0.000000 0.000000 -31.003074 2.343472 -54.227789 0.000000 0.000000 0.000000 31.608004 5.347807 10.226608 -25.904848 4.459777 -0.235544 16.794088 13.565375 158.190878 0.000000 0.000000 0.000000 -80.855021 -5.960354 32.065360 48.529793 -2.872072 3.788275 -52.748286 13.853956 136.998416 
0.001830 0.771409 -0.002554 1.913525 -5.609165 20.102546 0.000000 0.000000 0.000000 3.721953 10.309180 40.798213 4.226626 4.573862 -56.192474 11.531641 51.137432 94.060454 0.000000 0.000000 0.000000 -5.186353 -4.391665 44.015106 8.753295 1.214026 -77.338111 -64.023323 -42.867573 138.666895 0.000000 0.000000 0.000000 3.783948 4.332484 -40.454057 -8.969798 -0.510285 -17.449059 14.836937 -2.799232 47.629942 0.000000 0.000000 0.000000 -30.474219 2.112900 -55.046706 0.000000 0.000000 0.000000 29.913220 4.947068 9.488249 -23.239633 3.353650 -2.414694 13.168060 19.744674 160.006871 0.000000 0.000000 0.000000 -79.676267 -6.591595 32.462192 46.890787 -2.936750 3.922601 -68.656133 24.771992 129.183033 
0.001166 0.773842 -0.006454 1.826684 -5.587090 19.450810 0.000000 0.000000 0.000000 3.842418 10.451799 41.495360 4.172853 4.540859 -56.403433 10.342011 50.861357 93.921864 0.000000 0.000000 0.000000 -5.045339 -4.537088 44.648530 7.947764 0.747709 -77.267546 -52.763632 -43.756918 134.494276 0.000000 0.000000 0.000000 4.259922 4.312186 -39.929659 -9.110529 -0.619842 -18.527019 15.267485 -2.648530 49.671376 0.000000 0.000000 0.000000 -30.540425 2.091760 -55.062766 0.000000 0.000000 0.000000 32.261471 3.276763 8.729345 -26.272974 3.417529 -4.144329 10.516181 22.823106 158.804201 0.000000 0.000000 0.000000 -81.019109 -7.722285 34.616957 46.630212 -4.022344 6.063461 -95.147231 32.273207 109.250748 
0.003088 0.771381 -0.012263 2.503073 -5.596515 18.321989 0.000000 0.000000 0.000000 3.760007 10.766134 42.444337 3.470600 4.218947 -56.900091 13.290226 51.426207 93.808023 0.000000 0.000000 0.000000 -5.317577 -4.558460 46.061930 7.831985 0.664753 -78.159257 -56.016598 -44.358337 132.810229 0.000000 0.000000 0.000000 3.412780 4.060568 -38.854498 -8.880376 -0.483046 -17.153848 14.774750 -2.202768 49.393541 0.000000 0.000000 0.000000 -28.318167 1.632218 -56.509876 0.000000 0.000000 0.000000 31.276949 2.934838 8.306237 -24.582332 3.092355 -4.372608 9.561927 24.575816 158.901728 0.000000 0.000000 0.000000 -80.211761 -8.182536 34.922632 45.109897 -5.564558 9.035584 -126.753788 23.347320 79.527848 
0.001281 0.768150 -0.011117 2.473379 -5.517076 18.158943 0.000000 0.000000 0.000000 4.209306 10.655296 42.908209 3.021226 3.996666 -56.839384 11.355308 51.012363 93.720402 0.000000 0.000000 0.000000 -4.792162 -4.912027 46.563701 6.914595 0.144458 -78.527995 -55.532066 -44.613912 131.731124 0.000000 0.000000 0.000000 4.447191 4.301239 -39.720400 -9.382398 -0.379356 -16.285086 14.116998 -1.147313 49.067281 0.000000 0.000000 0.000000 -25.690645 2.266710 -53.337701 0.000000 0.000000 0.000000 31.168943 2.177852 7.817448 -23.849788 3.526544 -2.549033 11.831615 21.601264 159.476142 0.000000 0.000000 0.000000 -78.089543 -7.907079 32.900150 45.536610 -5.999478 9.758314 -132.953158 19.634928 74.014781 
